<!DOCTYPE svg PUBLIC "-//W3C//DTD SVG 1.1//EN" "http://www.w3.org/Graphics/SVG/1.1/DTD/svg11.dtd">

<svg height="30px" width="30px" version="1.1" id="Layer_1" xmlns="http://www.w3.org/2000/svg" xmlns:xlink="http://www.w3.org/1999/xlink" viewBox="0 0 512 512" xml:space="preserve" fill="#000000" transform="matrix(-1, 0, 0, 1, 0, 0)">

<g id="SVGRepo_bgCarrier" stroke-width="0"/>

<g id="SVGRepo_tracerCarrier" stroke-linecap="round" stroke-linejoin="round"/>

<g id="SVGRepo_iconCarrier"> <path style="fill:#0a3f47;" d="M352.396,512H103.612c-8.314,0-15.054-6.741-15.054-15.054v-71.829 c0-8.313,6.74-15.054,15.054-15.054h43.659c8.314,0,15.054,6.741,15.054,15.054c0,8.313-6.74,15.054-15.054,15.054h-28.605v41.722 h218.676v-41.722H220.351c-8.314,0-15.054-6.741-15.054-15.054c0-8.313,6.74-15.054,15.054-15.054h132.045 c8.314,0,15.054,6.741,15.054,15.054v71.829C367.45,505.26,360.71,512,352.396,512z"/> <path style="fill:#93c5cc;" d="M209.519,198.013v-15.951c0-15.948,13.01-29.53,29.728-30.096 c17.553-0.595,31.979,12.793,31.979,29.391v17.213l0.333-154.106c0-16.243,13.813-29.411,30.854-29.411h1.186 c17.039,0,30.854,13.168,30.854,29.411v110.671v25.447v76.908l30.02-73.098c5.281-15.769,22.984-24.465,39.527-19.431 c16.543,5.043,25.665,21.909,20.384,37.684L358.467,338.39c-8.141,16.765-25.756,27.5-45.137,27.509l-177.423,0.077 c-27.491,0.012-49.783-21.226-49.786-47.432l-0.018-116.556c0-16.243,13.813-29.411,30.854-29.411l0,0 c17.039,0,30.854,13.168,30.854,29.411V195c0-16.243,13.813-29.411,30.854-29.411l0,0c17.039,0,30.854,13.168,30.854,29.411"/> <path style="fill:#0a3f47;" d="M135.884,381.032c-17.172,0-33.35-6.405-45.562-18.039c-12.415-11.826-19.254-27.612-19.255-44.443 l-0.018-116.553c0-24.521,20.594-44.467,45.908-44.467c10.053,0,19.362,3.146,26.933,8.477c8.426-9.466,20.889-15.466,34.774-15.466 c8.597,0,16.651,2.3,23.537,6.302c7.914-11.632,21.199-19.398,36.536-19.918c6.029-0.205,11.998,0.757,17.563,2.75l0.205-95.24 C256.505,19.946,277.098,0,302.411,0h1.188c25.313,0,45.908,19.946,45.908,44.464v136.747l0.872-2.121 c8.048-23.068,33.94-35.848,58.005-28.53c12.148,3.703,21.965,11.816,27.651,22.844c5.48,10.633,6.413,22.715,2.627,34.023 c-0.206,0.614-0.45,1.215-0.733,1.796l-65.919,135.745c-10.61,21.851-33.641,35.976-58.672,35.988l-177.423,0.077 C135.905,381.032,135.893,381.032,135.884,381.032z M116.957,187.637c-8.712,0-15.8,6.44-15.8,14.357l0.018,116.551 c0,8.516,3.521,16.559,9.914,22.65c6.586,6.276,15.391,9.731,24.794,9.731c0.006,0,0.011,0,0.017,0l177.423-0.077 c13.586-0.006,25.99-7.477,31.601-19.033l65.416-134.711c0.903-3.312,0.531-6.801-1.069-9.905c-1.93-3.742-5.361-6.526-9.66-7.837 c-8.797-2.677-18.156,1.725-20.863,9.814c-0.105,0.316-0.223,0.629-0.349,0.938l-30.02,73.098 c-2.732,6.651-9.783,10.455-16.841,9.05c-7.054-1.392-12.139-7.578-12.139-14.769V44.464c0-7.917-7.087-14.357-15.801-14.357h-1.188 c-8.712,0-15.8,6.44-15.8,14.357l-0.333,154.138c-0.018,8.302-6.753,15.022-15.054,15.022c-0.006,0-0.011,0-0.017,0 c-8.308-0.009-15.037-6.746-15.037-15.054v-17.213c0-3.661-1.525-7.149-4.292-9.824c-3.178-3.072-7.489-4.677-12.123-4.522 c-8.373,0.283-15.185,7.036-15.185,15.051v15.953c0,8.313-6.74,15.054-15.054,15.054c-8.314,0-15.054-6.741-15.054-15.054v-3.011 c0-7.917-7.087-14.357-15.8-14.357s-15.8,6.44-15.8,14.357v6.991c0,8.313-6.74,15.054-15.054,15.054 c-8.314,0-15.054-6.741-15.054-15.054C132.758,194.077,125.669,187.637,116.957,187.637z"/> </g>

</svg>